<?xml version="1.0" standalone="no"?>
<!DOCTYPE svg PUBLIC "-//W3C//DTD SVG 20010904//EN"
 "http://www.w3.org/TR/2001/REC-SVG-20010904/DTD/svg10.dtd">
<svg version="1.0" xmlns="http://www.w3.org/2000/svg"
 width="300.000000pt" height="436.000000pt" viewBox="0 0 300.000000 436.000000"
 preserveAspectRatio="xMidYMid meet">
<metadata>
Created by potrace 1.10, written by Peter Selinger 2001-2011
</metadata>
<g transform="translate(0.000000,436.000000) scale(0.100000,-0.100000)"
fill="#7510f7" stroke="none">
<path d="M1250 4006 c-3 -3 -29 -7 -57 -10 -58 -5 -102 -25 -156 -72 -44 -36
-145 -88 -197 -99 -42 -9 -136 -64 -166 -97 -56 -61 -114 -162 -120 -208 -2
-14 -8 -26 -14 -28 -5 -2 -10 -10 -10 -18 0 -24 -41 -136 -76 -207 -19 -37
-33 -71 -32 -75 1 -4 -4 -33 -11 -64 -21 -96 6 -373 42 -446 8 -15 17 -43 21
-63 5 -31 3 -37 -14 -42 -23 -6 -24 -27 -5 -77 l13 -35 1 33 c1 40 25 52 51
26 11 -10 31 -62 45 -114 15 -52 35 -115 45 -140 l19 -45 -6 150 c-6 168 9
329 33 356 9 10 14 26 12 37 -2 10 3 27 11 36 10 12 16 49 18 114 4 154 13
190 48 210 16 9 36 25 43 35 7 9 18 15 23 12 16 -10 10 -67 -8 -82 -16 -13
-16 -13 7 -8 14 4 30 13 36 21 14 18 70 29 78 16 4 -6 20 -7 43 -1 32 7 44 4
73 -16 19 -13 44 -25 55 -26 35 -5 71 9 72 29 1 14 -4 18 -25 15 -37 -6 -71
19 -54 39 6 8 9 18 5 21 -3 4 0 13 6 21 15 18 94 16 128 -2 12 -6 42 -37 68
-67 35 -40 54 -55 73 -55 l25 0 -24 26 c-23 26 -23 26 -2 15 12 -6 26 -17 30
-24 12 -19 151 -76 236 -96 76 -18 89 -17 65 7 -9 9 -9 12 0 12 7 0 12 7 12
16 0 18 64 47 89 39 11 -3 25 5 39 25 13 16 31 30 40 30 10 0 23 5 28 10 8 8
15 6 24 -5 7 -8 19 -15 26 -15 8 0 14 -4 14 -10 0 -5 7 -10 15 -10 8 0 15 -6
15 -14 0 -7 27 -22 63 -35 54 -18 76 -20 159 -14 89 5 97 4 106 -14 6 -11 11
-28 11 -39 0 -10 7 -68 15 -129 9 -60 21 -150 26 -200 6 -49 14 -112 20 -140
5 -27 9 -110 9 -184 1 -130 2 -134 20 -117 19 17 55 128 66 201 12 78 28 130
51 162 13 17 24 37 24 44 0 7 9 32 21 56 12 24 22 65 24 91 2 26 8 72 14 102
26 127 -27 426 -106 587 -42 88 -101 151 -174 186 -108 52 -223 128 -259 170
-15 17 -89 61 -166 97 -22 11 -74 24 -115 30 -40 6 -130 25 -198 41 -92 23
-134 29 -165 24 -53 -9 -60 -9 -131 0 -33 4 -62 5 -65 1z m-610 -416 c0 -5 -2
-10 -4 -10 -3 0 -8 5 -11 10 -3 6 -1 10 4 10 6 0 11 -4 11 -10z"/>
<path d="M1940 3090 c0 -12 28 -25 36 -17 3 3 -4 10 -15 17 -15 7 -21 7 -21 0z"/>
<path d="M890 2845 c-46 -25 -90 -70 -90 -92 0 -17 11 -16 38 2 34 24 77 26
140 5 31 -11 68 -20 82 -20 31 0 93 -37 85 -50 -3 -6 -16 -10 -28 -10 -25 0
-49 -13 -48 -26 1 -5 -9 -10 -21 -10 -21 -1 -21 -1 -2 13 17 14 15 15 -29 10
-61 -6 -142 -59 -157 -102 -14 -38 2 -51 61 -49 59 2 81 12 74 34 -3 9 1 23
10 30 13 10 19 8 36 -14 31 -39 64 -49 99 -31 16 8 31 24 35 35 8 25 28 26 46
1 11 -15 19 -17 38 -10 23 9 25 23 10 79 -3 12 11 15 86 16 74 1 91 5 93 18 2
9 -1 16 -6 16 -6 0 -26 16 -46 36 -19 19 -39 33 -43 31 -8 -5 -25 3 -112 48
-19 10 -57 20 -85 22 -28 3 -58 7 -66 10 -8 3 -33 5 -56 4 -26 -2 -45 3 -53
13 -18 22 -38 19 -91 -9z m197 -252 c-4 -3 -7 0 -7 7 0 7 3 10 7 7 3 -4 3 -10
0 -14z m70 0 c-4 -3 -10 -3 -14 0 -3 4 0 7 7 7 7 0 10 -3 7 -7z"/>
<path d="M2046 2851 c-6 -10 -56 -22 -175 -42 -40 -7 -79 -19 -86 -26 -8 -7
-18 -13 -24 -13 -5 0 -17 -7 -25 -15 -11 -12 -21 -13 -34 -6 -14 7 -29 3 -65
-20 -51 -32 -53 -50 -8 -74 24 -12 36 -11 97 5 39 11 70 15 72 9 6 -15 40 -10
82 11 22 11 48 20 58 20 11 0 25 7 32 15 7 8 21 15 32 15 11 0 45 7 76 16 47
14 63 15 109 4 29 -7 56 -10 60 -7 9 10 -35 55 -86 88 -44 28 -104 39 -115 20z"/>
<path d="M1873 2640 c-18 -4 -44 -15 -58 -24 -14 -9 -29 -14 -34 -11 -7 3 -22
-83 -17 -91 1 -1 14 -4 29 -8 22 -5 28 -4 24 6 -2 7 -11 12 -21 10 -9 -2 -16
2 -16 8 0 5 7 10 16 10 9 0 24 10 34 22 l17 22 35 -37 c41 -43 66 -46 106 -12
41 34 66 34 58 -1 -5 -19 -3 -25 6 -22 7 3 32 -1 56 -8 58 -18 75 -10 67 30
-8 36 -23 50 -90 82 -52 25 -91 31 -80 14 10 -16 -25 -12 -41 5 -17 16 -40 17
-91 5z m24 -57 c-4 -3 -7 0 -7 7 0 7 3 10 7 7 3 -4 3 -10 0 -14z m204 0 c13
-15 12 -15 -8 -4 -24 12 -29 21 -14 21 5 0 15 -7 22 -17z"/>
<path d="M1255 2530 c-3 -5 -1 -10 4 -10 6 0 11 5 11 10 0 6 -2 10 -4 10 -3 0
-8 -4 -11 -10z"/>
<path d="M2560 2538 c-1 -2 -2 -23 -4 -48 -2 -25 -7 -63 -10 -85 l-6 -40 14
30 c19 42 32 145 17 145 -6 0 -11 -1 -11 -2z"/>
<path d="M1218 2513 c7 -3 16 -2 19 1 4 3 -2 6 -13 5 -11 0 -14 -3 -6 -6z"/>
<path d="M989 2487 c15 -19 41 -23 41 -7 0 6 -4 10 -9 10 -5 0 -18 3 -28 7
-16 6 -16 5 -4 -10z"/>
<path d="M1115 2475 c-60 -12 -60 -12 -17 -14 23 0 42 -5 42 -11 0 -15 27 -12
66 6 70 34 24 43 -91 19z"/>
<path d="M1820 2465 c0 -2 13 -11 29 -19 24 -13 31 -13 48 -1 10 7 35 15 54
18 19 2 -3 5 -48 5 -46 1 -83 0 -83 -3z"/>
<path d="M1113 2433 c4 -3 10 -3 14 0 3 4 0 7 -7 7 -7 0 -10 -3 -7 -7z"/>
<path d="M2449 2163 c-13 -16 -12 -17 4 -4 9 7 17 15 17 17 0 8 -8 3 -21 -13z"/>
<path d="M1342 2081 c-7 -4 -15 -22 -17 -38 -4 -30 10 -42 48 -43 17 0 5 18
-15 23 -29 8 -17 19 29 27 l38 6 -32 17 c-37 20 -34 19 -51 8z"/>
<path d="M1565 2056 c-24 -17 -13 -31 23 -31 20 0 27 -5 26 -18 -2 -23 38 -33
76 -17 37 15 39 29 3 27 -21 -2 -28 3 -33 23 -5 20 -13 26 -40 28 -19 2 -44
-4 -55 -12z"/>
<path d="M1472 2023 c4 -21 33 -25 33 -3 0 8 -8 16 -18 18 -14 3 -18 -1 -15
-15z"/>
<path d="M1290 1778 c-14 -5 -36 -7 -50 -4 -14 2 -34 -2 -44 -10 -35 -25 -5
-37 86 -34 129 5 137 5 233 -3 50 -4 112 -14 139 -22 50 -15 117 -8 139 14 17
17 -12 42 -52 42 -92 1 -129 5 -124 12 7 12 -6 8 -32 -9 -22 -14 -24 -14 -35
6 -10 18 -17 20 -68 15 -31 -4 -61 -10 -65 -15 -5 -4 -30 -2 -56 5 -31 8 -55
9 -71 3z"/>
<path d="M1800 1780 c0 -7 3 -10 7 -7 3 4 3 10 0 14 -4 3 -7 0 -7 -7z"/>
<path d="M1466 1598 c9 -31 12 -34 25 -21 15 15 4 43 -16 43 -12 0 -15 -6 -9
-22z"/>
<path d="M2153 1526 c-13 -6 -23 -14 -23 -19 0 -4 -4 -5 -10 -2 -5 3 -10 0
-10 -7 0 -7 -5 -20 -10 -28 -9 -13 -11 -13 -21 0 -8 12 -9 10 -4 -7 4 -15 2
-23 -7 -24 -7 -1 -20 -2 -28 -3 -8 0 -15 -8 -15 -16 0 -8 -18 -24 -40 -35 -21
-10 -47 -27 -57 -37 -21 -21 -34 -23 -44 -7 -4 8 -9 7 -16 -2 -7 -11 -11 -11
-15 -1 -6 16 -23 16 -23 -1 0 -7 -7 -22 -15 -33 -13 -16 -16 -17 -25 -4 -8 13
-13 13 -30 2 -11 -7 -25 -10 -30 -7 -5 3 -18 1 -28 -4 -13 -7 -23 -6 -32 2
-10 9 -14 9 -17 0 -6 -17 -18 -16 -37 2 -13 14 -16 13 -26 -4 -11 -22 -36 -19
-59 8 -10 12 -15 13 -18 4 -3 -7 -9 -13 -14 -13 -6 0 -8 4 -4 9 3 5 1 12 -5
16 -5 3 -10 0 -10 -8 0 -10 -8 -13 -25 -9 -16 3 -25 0 -25 -8 0 -10 -3 -10
-14 0 -8 6 -37 11 -63 10 -26 -2 -57 1 -67 5 -10 5 -37 3 -60 -3 -22 -6 -43
-7 -46 -2 -3 4 -25 16 -50 26 -25 9 -69 34 -97 56 -54 39 -66 43 -38 11 9 -10
27 -33 41 -50 14 -18 32 -33 39 -33 7 0 27 -17 43 -38 17 -21 48 -47 69 -58
21 -10 43 -24 50 -31 7 -6 30 -17 50 -23 55 -17 173 -72 173 -81 0 -4 -8 -10
-17 -12 -16 -4 -16 -5 -1 -6 9 0 24 6 33 15 12 12 27 15 58 11 35 -5 45 -3 55
13 12 19 51 24 63 7 3 -4 20 -4 38 -1 30 6 31 8 15 25 -16 18 -16 19 23 19 25
0 47 7 61 20 12 11 26 20 31 20 6 0 8 7 4 16 -4 12 0 14 21 8 19 -4 26 -2 26
9 0 8 12 23 26 33 15 10 35 28 45 38 11 11 19 14 19 8 0 -7 5 -12 11 -12 5 0
7 5 4 10 -3 6 1 13 9 16 21 8 20 24 -1 24 -29 0 14 37 52 44 31 6 105 73 105
94 0 5 11 14 25 20 14 6 25 18 25 27 0 17 -6 17 -37 1z"/>
<path d="M2403 1143 c32 -34 34 -67 11 -157 -59 -231 -320 -587 -569 -777 -58
-44 -202 -142 -275 -187 l-35 -22 733 0 732 0 0 434 c0 419 -1 435 -19 441
-11 3 -59 35 -107 70 -48 35 -108 72 -133 82 -25 9 -72 34 -105 55 -32 21 -75
40 -95 44 -20 4 -47 12 -61 19 -14 8 -44 16 -65 20 l-40 8 28 -30z"/>
<path d="M505 1089 c-22 -5 -44 -14 -49 -19 -6 -6 -23 -10 -38 -10 -35 0 -90
-22 -125 -50 -14 -11 -51 -28 -82 -37 -31 -8 -91 -29 -133 -45 l-78 -30 0
-449 0 -449 698 0 697 0 -112 59 c-206 109 -268 156 -417 319 -111 121 -129
146 -239 327 -107 175 -127 219 -127 281 0 54 9 68 65 97 29 16 29 16 5 16
-14 -1 -43 -5 -65 -10z"/>
</g>
</svg>
